<?xml version="1.0" encoding="UTF-8" standalone="no"?>
<svg id="Layer_1" xmlns:rdf="http://www.w3.org/1999/02/22-rdf-syntax-ns#" xmlns="http://www.w3.org/2000/svg" enable-background="new 0 0 792 288" xml:space="preserve" height="150" viewBox="0 0 150 150" width="150" version="1.1" y="0px" x="0px" xmlns:cc="http://creativecommons.org/ns#" xmlns:xlink="http://www.w3.org/1999/xlink" xmlns:dc="http://purl.org/dc/elements/1.1/"><defs><circle id="SVGID_2_" cx="124.9" cy="148.4" r="67.2"/></defs><linearGradient id="SVGID_1_" y2="100.89" gradientUnits="userSpaceOnUse" x2="77.327" gradientTransform="translate(-49.819 -73.49)" y1="195.98" x1="172.42"><stop id="stop4" stop-color="#C92328" offset="0"/><stop id="stop6" stop-color="#EF3C51" offset="1"/></linearGradient><g id="g3532" transform="matrix(1.1161 0 0 1.1161 -8.7954 -8.6045)"><circle id="circle8" fill-rule="evenodd" cy="74.91" cx="75.081" clip-rule="evenodd" r="67.2" fill="url(#SVGID_1_)"/><g id="g10" transform="translate(-49.819 -73.49)"><clipPath id="SVGID_3_"><use id="use16" xlink:href="#SVGID_2_" height="100%" width="100%" y="0" x="0" overflow="visible"/></clipPath><linearGradient id="SVGID_4_" y2="116.77" gradientUnits="userSpaceOnUse" y1="200.1" x2="121.5" x1="169.61"><stop id="stop19" stop-color="#B22A3E" offset="0"/><stop id="stop21" stop-color="#9C2132" offset=".3929"/><stop id="stop23" stop-color="#7F0B10" offset=".8316"/><stop id="stop25" stop-color="#740202" offset="1"/></linearGradient><path id="path27" opacity=".25" d="m190.6 161.2-39.7-37.3-3.2-1.9c-5.4-6.1-25.7-0.8-31.8-2-0.7 19.5-1.3 39.5-2.1 59 10.6 11.4 21.1 22.3 31.6 33.4 23.1-7.6 40.6-27.1 45.2-51.2z" clip-path="url(#SVGID_3_)" fill-rule="evenodd" clip-rule="evenodd" fill="url(#SVGID_4_)"/></g><path id="path31" opacity=".15" d="m62.081 100.71c0 1.4 0.3 2.6 1 3.7 0.6 1.1 1.4 2 2.5 2.6 1 0.6 2.2 1 3.5 1s2.5-0.4 3.5-1c1.1-0.6 1.9-1.5 2.5-2.6s0.9-2.3 0.9-3.7v-13.2l12.8-0.1c6.1 0 11.9-1.7 17.3-7.1 4.8-4.8 5.3-14.4 1.7-21.5-3-5.9-8.5-10.4-14.9-12-0.2-0.1-0.7-0.2-1-0.2-1-0.1-0.8 0.1-0.9 0.2 0.4 0.3 0.6 0.6 0.9 1.1 1 1.8 1.9 9.4-0.1 11.6l-0.6 0.7c5.3 1.5 7 10.3 3.1 14.3-1.3 1.4-3.7 2.5-6.4 2.6l-11.9 0.2v-17.1h6.9 2.4c0.8 0 1.5-0.3 2.2-0.9s1.2-1.4 1.6-2.4 0.6-2.1 0.6-3.4c0-1.2-0.2-2.4-0.6-3.4s-0.9-1.8-1.6-2.4-1.4-0.9-2.2-0.9h-2.4-16.5-14.9c-1.2 0-2.3 0.3-3.2 0.9-1 0.6-1.7 1.4-2.3 2.4s-0.9 2.1-0.9 3.4c0 1.2 0.3 2.4 0.9 3.4s1.3 1.8 2.3 2.4 2 0.9 3.2 0.9h10.6v40.5z"/><path id="path33" d="m61.081 99.71c0 1.4 0.3 2.6 1 3.7 0.6 1.1 1.4 2 2.5 2.6 1 0.6 2.2 1 3.5 1s2.5-0.4 3.5-1c1.1-0.6 1.9-1.5 2.5-2.6s0.9-2.3 0.9-3.7v-13.2l12.8-0.1c6.1 0 11.9-1.7 17.3-7.1 4.8-4.8 5.3-14.4 1.7-21.5-3-5.9-8.5-10.4-14.9-12-0.2-0.1-0.7-0.2-1-0.2-1-0.1-0.8 0.1-0.9 0.2 0.4 0.3 0.6 0.6 0.9 1.1 1 1.8 1.9 9.4-0.1 11.6l-0.6 0.7c5.3 1.5 7 10.3 3.1 14.3-1.3 1.4-3.7 2.5-6.4 2.6l-11.9 0.2v-17.1h6.9 2.4c0.8 0 1.5-0.3 2.2-0.9s1.2-1.4 1.6-2.4 0.6-2.1 0.6-3.4c0-1.2-0.2-2.4-0.6-3.4s-0.9-1.8-1.6-2.4-1.4-0.9-2.2-0.9h-2.4-16.5-14.9c-1.2 0-2.3 0.3-3.2 0.9-1 0.6-1.7 1.4-2.3 2.4s-0.9 2.1-0.9 3.4c0 1.2 0.3 2.4 0.9 3.4s1.3 1.8 2.3 2.4 2 0.9 3.2 0.9h10.6v40.5z" fill="#fff"/></g></svg>
